#!OML:ASF X:\für Bonn\!DataBase\2005_08_11_Bastian_Final\c3d\Bastian.ASF
:FULLY-SPECIFIED
:DEGREES
123
root 4.90331 16.4269 -20.2408 123.171 2.83598 -187.582
lowerback 35.6052 0.0393991 -1.87078
upperback 22.3417 12.1358 -8.87328
thorax 9.19398 12.4479 -10.6154
lowerneck 21.7628 -11.2961 -11.3044
upperneck -2.79191 -17.4746 20.6126
head -1.45222 -10.0659 9.23318
rclavicle 3.4191e-014 5.08889e-014
rhumerus -34.3877 13.7053 -82.1563
rradius 115.319
rwrist 8.86545
rhand -16.2893 5.87289
rfingers 7.12502
rthumb 9.92104 -23.8733
lclavicle 3.4191e-014 5.08889e-014
lhumerus -45.1448 6.86179 94.7208
lradius 24.2134
lwrist 22.8148
lhand -13.3786 -35.8989
lfingers 7.12502
lthumb 12.7283 -6.3068
rfemur 38.6799 3.76094 18.0139
rtibia 42.6734
rfoot -11.788 1.21457
rtoes 4.81993
lfemur -77.2932 9.15901 -17.2091
ltibia 88.0004
lfoot 12.5973 -13.5719
ltoes -43.5121
124
root 4.90314 16.444 -20.2379 124.104 2.47086 -187.124
lowerback 34.9378 -0.0108547 -1.92218
upperback 22.1359 11.6693 -8.69393
thorax 9.00947 11.9778 -10.2692
lowerneck 21.2676 -11.2283 -11.2859
upperneck -2.48101 -17.4095 20.4604
head -1.31263 -10.0011 9.12248
rclavicle -3.18055e-015 -5.08889e-014
rhumerus -37.5981 13.3883 -83.405
rradius 115.01
rwrist 9.00332
rhand -16.2667 6.0231
rfingers 7.12502
rthumb 9.94289 -23.7221
lclavicle -3.18055e-015 -5.08889e-014
lhumerus -44.8034 5.76175 94.6499
lradius 25.2501
lwrist 23.598
lhand -13.7791 -35.3809
lfingers 7.12502
lthumb 12.3421 -5.76516
rfemur 37.7435 3.33457 18.2998
rtibia 42.8736
rfoot -11.7324 0.399316
rtoes 4.67766
lfemur -76.1932 9.03203 -18.127
ltibia 89.7318
lfoot 10.638 -13.2186
ltoes -44.2988
125
root 4.90263 16.4654 -20.2308 125.059 2.10989 -186.65
lowerback 34.2384 -0.0998694 -1.93066
upperback 21.9276 11.1521 -8.51041
thorax 8.83824 11.4836 -9.92968
lowerneck 20.7621 -11.1359 -11.2763
upperneck -2.19267 -17.2985 20.2232
head -1.19156 -9.90544 8.98784
rclavicle 5.80451e-014 -1.145e-013
rhumerus -40.6004 13.0199 -84.7002
rradius 114.532
rwrist 9.0431
rhand -16.3456 6.07555
rfingers 7.12502
rthumb 9.86677 -23.6732
lclavicle 5.80451e-014 -1.145e-013
lhumerus -44.3813 4.70347 94.471
lradius 26.2555
lwrist 24.7007
lhand -14.0433 -34.6993
lfingers 7.12502
lthumb 12.0873 -5.06841
rfemur 36.7775 2.89308 18.5993
rtibia 43.0362
rfoot -11.6318 -0.410689
rtoes 4.41372
lfemur -74.9309 8.92874 -18.9543
ltibia 91.4129
lfoot 8.97275 -12.2794
ltoes -43.2809
126
root 4.90021 16.4864 -20.2225 126.053 1.83262 -186.147
lowerback 33.5099 -0.226174 -1.77548
upperback 21.7024 10.6144 -8.32972
thorax 8.68052 10.9949 -9.67905
lowerneck 20.3745 -11.0132 -11.3825
upperneck -2.03036 -17.1574 20.088
head -1.11147 -9.8063 8.92036
rclavicle -4.33351e-014 -1.43125e-014
rhumerus -43.4262 12.5445 -86.0316
rradius 113.94
rwrist 9.08694
rhand -16.6171 5.97802
rfingers 7.12502
rthumb 9.60475 -23.783
lclavicle -4.33351e-014 -1.43125e-014
lhumerus -43.9188 3.76273 94.0728
lradius 27.2738
lwrist 25.8894
lhand -14.1109 -33.929
lfingers 7.12502
lthumb 12.0222 -4.29428
rfemur 35.7525 2.46464 18.984
rtibia 43.1805
rfoot -11.5209 -1.21831
rtoes 4.15321
lfemur -73.5143 8.866 -19.5825
ltibia 93.0047
lfoot 7.89986 -10.9759
ltoes -40.3721
127
root 4.89374 16.5077 -20.2143 127.047 1.61794 -185.698
lowerback 32.7263 -0.373026 -1.58359
upperback 21.483 10.0516 -8.15812
thorax 8.56301 10.4982 -9.44835
lowerneck 20.0059 -10.8644 -11.5668
upperneck -1.96171 -16.9708 19.9177
head -1.0648 -9.68004 8.86014
rclavicle -2.38542e-015 -7.4743e-014
rhumerus -46.071 12.0528 -87.3238
rradius 113.314
rwrist 9.09967
rhand -16.9056 5.77103
rfingers 7.12502
rthumb 9.32639 -24.0027
lclavicle -2.38542e-015 -7.4743e-014
lhumerus -43.3154 3.1309 93.4594
lradius 28.1739
lwrist 26.9442
lhand -14.0029 -33.1434
lfingers 7.12502
lthumb 12.1263 -3.51486
rfemur 34.7046 2.09046 19.3209
rtibia 43.3153
rfoot -11.3831 -1.94776
rtoes 4.03265
lfemur -71.9108 8.85271 -20.0579
ltibia 94.5047
lfoot 6.92537 -9.79582
ltoes -38.0279
128
root 4.88252 16.5337 -20.2037 128.066 1.45763 -185.301
lowerback 31.8981 -0.525071 -1.31799
upperback 21.2285 9.4815 -8.02133
thorax 8.44375 10.004 -9.29837
lowerneck 19.6682 -10.7039 -11.7418
upperneck -1.92312 -16.7615 19.744
head -1.03632 -9.54463 8.80296
rclavicle 7.63333e-014 -1.7334e-013
rhumerus -48.6366 11.41 -88.5635
rradius 112.716
rwrist 9.07913
rhand -17.1801 5.55509
rfingers 7.12502
rthumb 9.06155 -24.2303
lclavicle 7.63333e-014 -1.7334e-013
lhumerus -42.8283 2.57785 92.6731
lradius 29.2123
lwrist 27.98
lhand -13.8175 -32.4239
lfingers 7.12502
lthumb 12.3051 -2.80592
rfemur 33.6016 1.74293 19.5826
rtibia 43.4564
rfoot -11.2601 -2.59716
rtoes 3.67659
lfemur -70.1418 8.88644 -20.4122
ltibia 95.8792
lfoot 6.11876 -8.80586
ltoes -37.2391
129
root 4.86742 16.5643 -20.1896 129.069 1.38694 -185.015
lowerback 31.0242 -0.672527 -1.10701
upperback 20.9933 8.91561 -7.91276
thorax 8.38045 9.51612 -9.14565
lowerneck 19.2046 -10.5362 -11.9072
upperneck -1.90451 -16.5142 19.4965
head -1.00676 -9.37783 8.71207
rclavicle 4.29375e-014 -5.725e-014
rhumerus -50.9067 10.8345 -89.6214
rradius 112.165
rwrist 9.00231
rhand -17.3794 5.21015
rfingers 7.12502
rthumb 8.86921 -24.5835
lclavicle 4.29375e-014 -5.725e-014
lhumerus -42.1948 2.51741 91.6329
lradius 30.1347
lwrist 28.5748
lhand -13.5007 -31.9264
lfingers 7.12502
lthumb 12.6105 -2.32703
rfemur 32.4789 1.50263 19.7792
rtibia 43.5886
rfoot -11.1066 -3.14957
rtoes 3.533
lfemur -68.1772 9.05296 -20.6858
ltibia 97.1255
lfoot 5.50766 -7.75072
ltoes -37.361
130
root 4.84776 16.5975 -20.171 130.081 1.41999 -184.843
lowerback 30.1837 -0.786636 -0.893539
upperback 20.7075 8.38215 -7.85093
thorax 8.27012 9.04692 -9.06642
lowerneck 18.7534 -10.3464 -12.0337
upperneck -1.89557 -16.2277 19.2447
head -0.991567 -9.19377 8.61774
rclavicle -4.6118e-014 1.145e-013
rhumerus -53.0639 10.2613 -90.6185
rradius 111.735
rwrist 8.84142
rhand -17.5395 4.80846
rfingers 7.12502
rthumb 8.71474 -24.9916
lclavicle -4.6118e-014 1.145e-013
lhumerus -41.5387 2.6181 90.4086
lradius 30.9791
lwrist 28.9608
lhand -13.151 -31.6869
lfingers 7.12502
lthumb 12.9477 -2.10863
rfemur 31.3088 1.33624 19.8587
rtibia 43.6984
rfoot -10.9333 -3.57311
rtoes 3.38231
lfemur -66.0622 9.31177 -20.8307
ltibia 98.2198
lfoot 5.14248 -6.68909
ltoes -37.5962
